<!-- <link rel="stylesheet"  xmlns="http://www.w3.org/2000/svg" href="https://fonts.googleapis.com/css2?family=Material+Symbols+Outlined:opsz,wght,FILL,GRAD@20..48,100..700,0..1,-50..200" /> -->
<!-- <svg  aria-hidden="true" xmlns="http://www.w3.org/2000/svg" fill="none" viewBox="0 0 24 24">
    <path stroke="currentColor" stroke-linecap="round" stroke-linejoin="round" stroke-width="2" d="M17 15.5V5s3 1 3 4m-7-3H4m9 4H4m4 4H4m13 2.4c0 1.3-1.3 2.4-3 2.4s-3-1-3-2.4c0-1.3 1.3-2.4 3-2.4s3 1 3 2.4Z"/>
  </svg> -->

  <!-- class="w-6 h-6 text-gray-800 dark:text-white" -->

<!-- <svg viewBox="0 0 512 512" xmlns="http://www.w3.org/2000/svg"><title/><g data-name="1" id="_1"><path d="M137.45,450a83.32,83.32,0,1,1,83.31-83.31A83.41,83.41,0,0,1,137.45,450Zm0-136.63a53.32,53.32,0,1,0,53.31,53.32A53.38,53.38,0,0,0,137.45,313.37Z"/><path d="M374.88,395a83.32,83.32,0,1,1,83.31-83.32A83.41,83.41,0,0,1,374.88,395Zm0-136.63a53.32,53.32,0,1,0,53.31,53.31A53.37,53.37,0,0,0,374.88,258.37Z"/><path d="M205.76,381.69a15,15,0,0,1-15-15V119.3a15,15,0,0,1,11.69-14.63L439.88,50.88a15,15,0,0,1,18.31,14.63V311.68a15,15,0,0,1-30,0V84.29l-207.43,47V366.69A15,15,0,0,1,205.76,381.69Z"/><path d="M205.75,202.62a15,15,0,0,1-3.3-29.64l237.43-53.79a15,15,0,0,1,6.63,29.26L209.08,202.24A14.73,14.73,0,0,1,205.75,202.62Z"/></g></svg> -->
<!-- <svg xmlns="http://www.w3.org/2000/svg" xml:space="preserve" width="2048" height="2048" style="shape-rendering:geometricPrecision;text-rendering:geometricPrecision;image-rendering:optimizeQuality;fill-rule:evenodd;clip-rule:evenodd"><defs><style>.fil0,.fil1{fill:#d50000;fill-rule:nonzero}.fil0{fill:#e65100}</style></defs><g id="Layer_x0020_1"><g id="_359466928"><path class="fil0" d="M1584 498v876c0 18-14 32-32 32s-32-14-32-32V510l-100 19-149 66 312-98zM784 1630c0 18-14 32-32 32s-32-14-32-32l-1-955 64-12 1 967z"/><path class="fil0" d="M719 700V440c0-16 11-29 26-31l801-150c17-3 34 8 37 26 0 2 1 4 1 6v246l-312 59-489 92v1l-64 12z"/><path class="fil1" d="M624 1470c44 0 84 18 113 47s47 69 47 113-18 84-47 113-69 47-113 47-84-18-113-47-47-69-47-113 18-84 47-113 69-47 113-47zM1537 1487c-29 29-69 47-113 47s-84-18-113-47-47-69-47-113 18-84 47-113 69-47 113-47 84 18 113 47 47 69 47 113-18 84-47 113z"/><path d="M719 440v122l865-166V290c0-2 0-4-1-6-3-17-20-29-37-26L745 408c-15 3-26 16-26 31z" style="fill:#eb6000"/></g><path style="fill:none" d="M0 0h2048v2048H0z"/></g></svg> -->
<svg xmlns="http://www.w3.org/2000/svg" width="24" height="24" viewBox="0 0 24 24" fill="none">
<circle cx="6.5" cy="18.5" r="3.5" stroke="#000000" stroke-width="1.5"/>
<circle cx="18" cy="16" r="3" stroke="#000000" stroke-width="1.5"/>
<path d="M10 18.5L10 7C10 6.07655 10 5.61483 10.2635 5.32794C10.5269 5.04106 11.0175 4.9992 11.9986 4.91549C16.022 4.57222 18.909 3.26005 20.3553 2.40978C20.6508 2.236 20.7986 2.14912 20.8993 2.20672C21 2.26432 21 2.4315 21 2.76587V16" stroke="#000000" stroke-width="1.5" stroke-linecap="round" stroke-linejoin="round"/>
<path d="M10 10C15.8667 10 19.7778 7.66667 21 7" stroke="#000000" stroke-width="1.5" stroke-linecap="round" stroke-linejoin="round"/>
</svg>